<svg xmlns="http://www.w3.org/2000/svg" xmlns:xlink="http://www.w3.org/1999/xlink" width="316" height="112"><defs><linearGradient id="a" x1="14" y1="88" x2="54" y2="88" gradientUnits="userSpaceOnUse"><stop offset="0" stop-color="#bdc1c6" stop-opacity="0"/><stop offset=".137" stop-color="#bdc1c6" stop-opacity=".021"/><stop offset=".279" stop-color="#bdc1c6" stop-opacity=".084"/><stop offset=".424" stop-color="#bdc1c6" stop-opacity=".189"/><stop offset=".57" stop-color="#bdc1c6" stop-opacity=".336"/><stop offset=".718" stop-color="#bdc1c6" stop-opacity=".525"/><stop offset=".864" stop-color="#bdc1c6" stop-opacity=".753"/><stop offset="1" stop-color="#bdc1c6"/></linearGradient><linearGradient id="e" x1="74" y1="110" x2="130" y2="110" xlink:href="#a"/><linearGradient id="f" x1="158" y1="20" x2="158" y2="112" gradientUnits="userSpaceOnUse"><stop offset="0" stop-color="#1967d2" stop-opacity="0"/><stop offset=".133" stop-color="#1967d2" stop-opacity=".02"/><stop offset=".271" stop-color="#1967d2" stop-opacity=".079"/><stop offset=".411" stop-color="#1967d2" stop-opacity=".178"/><stop offset=".553" stop-color="#1967d2" stop-opacity=".317"/><stop offset=".696" stop-color="#1967d2" stop-opacity=".495"/><stop offset=".841" stop-color="#1967d2" stop-opacity=".713"/><stop offset=".983" stop-color="#1967d2" stop-opacity=".967"/><stop offset="1" stop-color="#1967d2"/></linearGradient><linearGradient id="g" x1="158" y1="26" x2="158" y2="36" gradientUnits="userSpaceOnUse"><stop offset="0" stop-color="#5f6368"/><stop offset=".003" stop-color="#5f6368" stop-opacity=".994"/><stop offset=".206" stop-color="#5f6368" stop-opacity=".638"/><stop offset=".41" stop-color="#5f6368" stop-opacity=".359"/><stop offset=".611" stop-color="#5f6368" stop-opacity=".16"/><stop offset=".809" stop-color="#5f6368" stop-opacity=".04"/><stop offset="1" stop-color="#5f6368" stop-opacity="0"/></linearGradient><clipPath id="b"><path d="M102 53a2 2 0 10-2-2 2.006 2.006 0 002 2zm6 3H96V46h12zm-9-14a3 3 0 016 0v2h-6zm9 2h-1v-2a5 5 0 00-10 0v2h-1a2.006 2.006 0 00-2 2v10a2.006 2.006 0 002 2h12a2.006 2.006 0 002-2V46a2.006 2.006 0 00-2-2z" fill="#e8eaed"/></clipPath><clipPath id="c"><path fill="#e8eaed" d="M90 36h24v24H90z"/></clipPath><clipPath id="d"><path fill="#e8eaed" d="M94 37h16v21H94z"/></clipPath></defs><g style="isolation:isolate"><path fill="url(#a)" style="mix-blend-mode:multiply" d="M14 86h40v4H14z"/><rect x="73" y="7" width="58" height="82" rx="5" fill="#fff"/><path d="M126 8a4.005 4.005 0 014 4v72a4.005 4.005 0 01-4 4H78a4.005 4.005 0 01-4-4V12a4.005 4.005 0 014-4h48m0-2H78a6 6 0 00-6 6v72a6 6 0 006 6h48a6 6 0 006-6V12a6 6 0 00-6-6z" fill="#e8eaed"/><path fill="#f8f9fa" d="M79 13h46v70H79z"/><path d="M124 14v68H80V14h44m2-2H78v72h48V12z" fill="#e8eaed"/><rect x="49" y="27" width="34" height="62" rx="5" fill="#fff"/><path d="M78 28a4.005 4.005 0 014 4v52a4.005 4.005 0 01-4 4H54a4.005 4.005 0 01-4-4V32a4.005 4.005 0 014-4h24m0-2H54a6 6 0 00-6 6v52a6 6 0 006 6h24a6 6 0 006-6V32a6 6 0 00-6-6z" fill="#e8eaed"/><path fill="#e8eaed" d="M48 36h36v2H48zm0 44h36v2H48z"/><path fill="#f8f9fa" d="M50 38h32v42H50z"/><rect x="58" y="31" width="16" height="2" rx="1" fill="#e8eaed"/><path d="M65.992 69a13.748 13.748 0 007.835-10.635A20.574 20.574 0 0074 56.074V51l-8-3-8 3v5.074a20.574 20.574 0 00.173 2.291A13.715 13.715 0 0065.993 69zM102 53a2 2 0 10-2-2 2.006 2.006 0 002 2zm6 3H96V46h12zm-9-14a3 3 0 016 0v2h-6zm9 2h-1v-2a5 5 0 00-10 0v2h-1a2.006 2.006 0 00-2 2v10a2.006 2.006 0 002 2h12a2.006 2.006 0 002-2V46a2.006 2.006 0 00-2-2z" fill="#e8eaed"/><g clip-path="url(#b)"><path fill="#e8eaed" d="M90 36h24v24H90z"/><g style="isolation:isolate" clip-path="url(#c)"><path fill="#e8eaed" d="M90 36h24v24H90z"/><g clip-path="url(#c)"><path fill="#e8eaed" d="M90 36h24v24H90z"/><g clip-path="url(#c)"><path fill="#e8eaed" d="M94 37h16v21H94z"/><g clip-path="url(#d)"><path fill="#e8eaed" d="M85 31h34v34H85z"/></g></g></g></g></g><path fill="none" d="M90 36h24v24H90z"/><path fill="url(#e)" style="mix-blend-mode:multiply" d="M74 108h56v4H74z"/><path d="M181 83V30a5.006 5.006 0 015-5h5v58z" fill="#f8f9fa"/><path d="M190 26v56h-8V30a4.005 4.005 0 014-4h4m2-2h-6a6 6 0 00-6 6v54h12V24z" fill="#e8eaed"/><path d="M185 83V30a5.006 5.006 0 015-5h64a5.006 5.006 0 015 5v53z" fill="#fff"/><path d="M254 26a4.005 4.005 0 014 4v52h-72V30a4.005 4.005 0 014-4h64m0-2h-64a6 6 0 00-6 6v54h76V30a6 6 0 00-6-6z" fill="#e8eaed"/><path d="M186 89a5.006 5.006 0 01-5-5v-1h52v6z" fill="#f8f9fa"/><path d="M232 84v4h-46a4.005 4.005 0 01-4-4h50m2-2h-54v2a6 6 0 006 6h48v-8z" fill="#e8eaed"/><path d="M232 89a5.006 5.006 0 01-5-5v-1h76v1a5.006 5.006 0 01-5 5z" fill="#fff"/><path d="M302 84a4.005 4.005 0 01-4 4h-66a4.005 4.005 0 01-4-4h74m2-2h-78v2a6 6 0 006 6h66a6 6 0 006-6v-2z" fill="#e8eaed"/><path d="M271.349 86h-12.697A3.651 3.651 0 01255 82.349V82h20v.348A3.651 3.651 0 01271.349 86z" fill="#e8eaed"/><path fill="#f8f9fa" d="M191 31h62v46h-62z"/><path d="M252 32v44h-60V32h60m2-2h-64v48h64V30z" fill="#e8eaed"/><rect x="124" y="20" width="68" height="92" rx="6" fill="#4285f4"/><rect x="124" y="20" width="68" height="92" rx="6" opacity=".5" fill="url(#f)" style="mix-blend-mode:multiply"/><path fill="#fff" d="M130 32h56v68h-56z"/><g fill="#185abc"><path d="M136 67h12v2h-12z"/><path d="M138.134 72.696l6-10.392 1.732 1-6 10.392z"/><path d="M144.134 73.696l-6-10.392 1.732-1 6 10.392z"/></g><path fill="none" d="M136 62h12v12h-12z"/><g fill="#185abc"><path d="M152 67h12v2h-12z"/><path d="M154.134 72.696l6-10.392 1.732 1-6 10.392z"/><path d="M160.134 73.696l-6-10.392 1.732-1 6 10.392z"/></g><path fill="none" d="M152 62h12v12h-12z"/><g fill="#185abc"><path d="M168 67h12v2h-12z"/><path d="M170.134 72.696l6-10.392 1.732 1-6 10.392z"/><path d="M176.134 73.696l-6-10.392 1.732-1 6 10.392z"/></g><path fill="none" d="M168 62h12v12h-12z"/><rect x="136" y="78" width="44" height="2" rx="1" fill="#bdc1c6"/><rect x="136" y="46" width="16" height="2" rx="1" fill="#bdc1c6"/><rect x="136" y="52" width="28" height="2" rx="1" fill="#bdc1c6"/><rect x="201" y="43" width="74" height="22" rx="3" fill="#fff"/><path d="M272 44a2.002 2.002 0 012 2v16a2.002 2.002 0 01-2 2h-68a2.002 2.002 0 01-2-2V46a2.002 2.002 0 012-2h68m0-2h-68a4 4 0 00-4 4v16a4 4 0 004 4h68a4 4 0 004-4V46a4 4 0 00-4-4z" fill="#e8eaed"/><rect x="266" y="48" width="2" height="12" rx="1" fill="#e8eaed"/><path fill="#e8eaed" d="M208 53h10v2h-10z"/><path fill="#e8eaed" d="M209.634 57.83l5-8.66 1.732 1-5 8.66z"/><path fill="#e8eaed" d="M214.634 58.83l-5-8.66 1.732-1 5 8.66z"/><path fill="none" d="M208 49h10v10h-10z"/><path fill="#e8eaed" d="M222 53h10v2h-10z"/><path fill="#e8eaed" d="M223.634 57.83l5-8.66 1.732 1-5 8.66z"/><path fill="#e8eaed" d="M228.634 58.83l-5-8.66 1.732-1 5 8.66z"/><path fill="none" d="M222 49h10v10h-10z"/><path fill="#e8eaed" d="M236 53h10v2h-10z"/><path fill="#e8eaed" d="M237.634 57.83l5-8.66 1.732 1-5 8.66z"/><path fill="#e8eaed" d="M242.634 58.83l-5-8.66 1.732-1 5 8.66z"/><path fill="none" d="M236 49h10v10h-10z"/><path fill="#e8eaed" d="M250 53h10v2h-10z"/><path fill="#e8eaed" d="M251.634 57.83l5-8.66 1.732 1-5 8.66z"/><path fill="#e8eaed" d="M256.634 58.83l-5-8.66 1.732-1 5 8.66z"/><path fill="none" d="M250 49h10v10h-10z"/><path d="M192.83 8.906L196 8l-3.17-.906a5.715 5.715 0 01-3.924-3.924L188 0l-.906 3.17a5.715 5.715 0 01-3.924 3.924L180 8l3.17.906a5.715 5.715 0 013.925 3.924L188 16l.906-3.17a5.715 5.715 0 013.924-3.924zm9.585 43.547L204 52l-1.585-.453a2.857 2.857 0 01-1.962-1.962L200 48l-.453 1.585a2.857 2.857 0 01-1.962 1.962L196 52l1.585.453a2.857 2.857 0 011.962 1.962L200 56l.453-1.585a2.857 2.857 0 011.962-1.962zM113.623 70.68L116 70l-2.377-.68a4.286 4.286 0 01-2.944-2.943L110 64l-.68 2.377a4.286 4.286 0 01-2.943 2.944L104 70l2.377.68a4.286 4.286 0 012.944 2.943L110 76l.68-2.377a4.286 4.286 0 012.943-2.944z" fill="#fbbc04"/><path fill="none" d="M0 0h316v112H0z"/><path d="M158 12a7 7 0 017 7v7h-14v-7a7 7 0 017-7z" fill="#9aa0a6"/><circle cx="158" cy="19" r="3" fill="#fff"/><path d="M142 26h32a6 6 0 016 6v4h-44v-4a6 6 0 016-6z" fill="#9aa0a6"/><path d="M174 26h-32a6 6 0 00-6 6v4h44v-4a6 6 0 00-6-6z" opacity=".3" fill="url(#g)" style="mix-blend-mode:multiply"/></g></svg>