<svg width="50" height="50" viewBox="0 0 50 50" fill="none" xmlns="http://www.w3.org/2000/svg">
<path d="M25 50C38.8071 50 50 38.8071 50 25C50 11.1929 38.8071 0 25 0C11.1929 0 0 11.1929 0 25C0 38.8071 11.1929 50 25 50Z" fill="#2761E0"/>
<path d="M26.9431 49.9236C39.1403 48.9861 48.885 39.2953 49.9096 27.1227L37.451 14.6641L35.3345 19.4427L30.4438 20.9578L13.4629 36.4434L26.9431 49.9236Z" fill="#1F4EB6"/>
<path d="M36.4975 24.1818C39.5165 21.1628 39.4448 16.2234 36.2822 13.2956C33.4289 10.6542 28.9603 10.6331 26.084 13.2493C24.0313 15.1163 23.2552 17.8217 23.7534 20.3239L13.3893 30.6881L13.2756 35.8767C13.2642 36.3967 13.693 36.8191 14.2128 36.7999L18.078 36.6568C18.7466 36.6321 19.2557 36.0481 19.1893 35.3822L19.1218 34.7073C19.0767 34.2555 19.3718 33.8397 19.8132 33.7331L22.2576 33.1431C22.6807 33.0409 23.011 32.7107 23.113 32.2877L23.7584 29.6135C23.8384 29.2818 24.0973 29.0231 24.4289 28.943L27.1036 28.2974C27.5266 28.1953 27.8568 27.865 27.9589 27.442L28.3431 25.8509C31.0645 26.9423 34.293 26.3864 36.4975 24.1818ZM34.6975 15.3027C35.5465 16.1518 35.5465 17.5281 34.6975 18.377C33.8485 19.226 32.4721 19.226 31.6233 18.377C30.7743 17.5279 30.7743 16.1516 31.6233 15.3027C32.4721 14.4537 33.8485 14.4537 34.6975 15.3027Z" fill="white"/>
<path d="M36.6888 13.7031L34.88 15.5119C35.5393 16.3645 35.4797 17.5936 34.6975 18.3759C33.9153 19.1582 32.6861 19.2177 31.8335 18.5584L13.7197 36.6722C13.8637 36.7577 14.0327 36.8052 14.2132 36.7984L18.0783 36.6554C18.747 36.6307 19.2561 36.0466 19.1896 35.3808L19.1222 34.7059C19.0771 34.254 19.3722 33.838 19.8136 33.7316L22.258 33.1416C22.6811 33.0396 23.0113 32.7093 23.1134 32.2862L23.7588 29.612C23.8388 29.2804 24.0977 29.0216 24.4293 28.9415L27.1039 28.2959C27.527 28.1937 27.8571 27.8636 27.9593 27.4405L28.3435 25.8494C31.065 26.941 34.2935 26.3853 36.498 24.1806C39.3807 21.2974 39.443 16.6646 36.6888 13.7031Z" fill="#EEEEEE"/>
<path d="M15.6505 32.4142C15.5212 32.4142 15.3921 32.3648 15.2935 32.2662C15.0962 32.069 15.0962 31.7492 15.2935 31.5521L24.7523 22.0933C24.9495 21.896 25.2691 21.896 25.4664 22.0933C25.6637 22.2904 25.6637 22.6103 25.4664 22.8074L16.0076 32.2662C15.9089 32.3648 15.7796 32.4142 15.6505 32.4142Z" fill="#EEEEEE"/>
</svg>
